<svg xmlns="http://www.w3.org/2000/svg" viewBox="0 0 64 64" fill="none" role="img" aria-label="Echoes mark">
  <defs>
    <linearGradient id="echoesGold" x1="8" y1="8" x2="56" y2="56" gradientUnits="userSpaceOnUse">
      <stop stop-color="#f3ebdd"/>
      <stop offset="0.45" stop-color="#c8a96b"/>
      <stop offset="1" stop-color="#6b5433"/>
    </linearGradient>
    <radialGradient id="echoesGlow" cx="0" cy="0" r="1" gradientUnits="userSpaceOnUse" gradientTransform="translate(22 20) rotate(55) scale(48)">
      <stop stop-color="#c8a96b" stop-opacity="0.35"/>
      <stop offset="1" stop-color="#111315" stop-opacity="0"/>
    </radialGradient>
  </defs>
  <circle cx="32" cy="32" r="30" fill="url(#echoesGlow)"/>
  <path fill="url(#echoesGold)" d="M18 14h16c4.4 0 8 3.6 8 8v2c0 2.5-1.1 4.7-2.9 6.2 1.8 1.5 2.9 3.7 2.9 6.2v3c0 4.4-3.6 8-8 8H18V14Zm6 6v11h8c1.1 0 2-.9 2-2v-3c0-1.1-.9-2-2-2H24Zm0 17v11h9c1.1 0 2-.9 2-2v-3c0-1.1-.9-2-2H24Z"/>
  <path stroke="url(#echoesGold)" stroke-width="2.2" stroke-linecap="round" opacity="0.9" d="M40 22c6 14 12 14 18 0M42 30c5 10 10 10 15 0M44 38c4 7 8 7 12 0"/>
</svg>
